{"title":"Dragon Blande (2015) HINDI  Untouched NTSC CAM-MP2 2.0-Team Tell","uid":11792300,"size":859535360,"categoryP":"video","categoryS":"other","magnet":"?xt=urn:btih:59732bd09bab635cb2c37dc75a25aa917eb7560a&amp;dn=Dragon+Blande+%282015%29+HINDI++Untouched+NTSC+CAM-MP2+2.0-Team+Tell&amp;tr=udp%3A%2F%2Ftracker.openbittorrent.com%3A80&amp;tr=udp%3A%2F%2Fopen.demonii.com%3A1337&amp;tr=udp%3A%2F%2Ftracker.coppersurfer.tk%3A6969&amp;tr=udp%3A%2F%2Fexodus.desync.com%3A6969","seeders":4,"leechers":1,"uploader":"rsy007","files":2,"time":1427999477,"description":"[img]http://i.imgur.com/6NGXx7v.png[/img]\n\n[color=red][b]Dragon Blande (2015) HINDI Untouched NTSC CAM-MP2 2.0-Team Telly Exclusive[/b][/color]\n\n[img]http://i.imgur.com/YUuhNdl.jpg[/Img]\n\n\n[color=red][b]Storyline:[/b][/color]\n\n[color=purple][b]Lost Roman soldiers navigate their way through China..[/b][/color]\n\n[color=green][b]Genres:Action, Adventure, Drama\n\nCountry: India\nLanguage: Hindi\nRelease Date:19 February 2015 (China)\n[/b][/color]\n\n[color=red][b]Media Information:[/b][/color]\n\n\n[color=blue]Complete name               :Dragon Blande (2015) HINDI Untouched NTSC CAM-MP2 2.0-Team Telly Exclusive\n\nFormat                                   : MPEG-PS\nFile size                                : 820 MiB\nDuration                                 : 2h 5mn\nOverall bit rate mode                    : Variable\nOverall bit rate                         : 915 Kbps\n\nVideo\nID                                       : 224 (0xE0)\nFormat                                   : MPEG Video\nFormat version                           : Version 2\nFormat profile                           : Main@Main\nFormat settings, BVOP                    : Yes\nFormat settings, Matrix                  : Custom\nFormat settings, GOP                     : Variable\nDuration                                 : 2h 5mn\nBit rate mode                            : Variable\nBit rate                                 : 801 Kbps\nMaximum bit rate                         : 8 000 Kbps\nWidth                                    : 352 pixels\nHeight                                   : 288 pixels\nDisplay aspect ratio                     : 4:3\nFrame rate                               : 25.000 fps\nStandard                                 : PAL\nColor space                              : YUV\nChroma subsampling                       : 4:2:0\nBit depth                                : 8 bits\nScan type                                : Progressive\nCompression mode                         : Lossy\nBits/(Pixel*Frame)                       : 0.316\nTime code of first frame                 : 00:00:00:00\nTime code source                         : Group of pictures header\nStream size                              : 717 MiB (88%)\nColor primaries                          : BT.601 PAL\nTransfer characteristics                 : BT.470 System B, BT.470 System G\nMatrix coefficients                      : BT.601\n\nAudio\nID                                       : 192 (0xC0)\nFormat                                   : MPEG Audio\nFormat version                           : Version 1\nFormat profile                           : Layer 2\nDuration                                 : 2h 5mn\nBit rate mode                            : Constant\nBit rate                                 : 96.0 Kbps\nChannel(s)                               : 2 channels\nSampling rate                            : 48.0 KHz\nCompression mode                         : Lossy\nStream size                              : 86.0 MiB (10%)\n\n[/color]\n\n[color=red][b]Screenshot:[/b][/color]\n\n[img]http://i.imgur.com/AdEErr3.png[/img]\n\n[img]http://i.imgur.com/Cge03yU.png[/img]\n\n[img]http://i.imgur.com/iJjzH2l.png[/img]\n\n[img]http://i.imgur.com/Gxssaci.png[/img]\n\n[img]http://i.imgur.com/d2Zgvlm.png[/img]\n\n[img]http://s25.postimg.org/gk60mev33/Rsy_Encode_copy.jpg[/img]\n\n[b]I am on FaceBook, Post Your suggestion, and find upcoming Releases at FB Page so keep in touch !!![/b]\n\n\n[color=red][b]Note : Please try to seed as much as you can since &quot;sharing brings joy&quot; ! [/b][/color]","torrent":{"xt":"urn:btih:59732bd09bab635cb2c37dc75a25aa917eb7560a","amp;dn":"Dragon+Blande+%282015%29+HINDI++Untouched+NTSC+CAM-MP2+2.0-Team+Tell","amp;tr":["udp%3A%2F%2Ftracker.openbittorrent.com%3A80","udp%3A%2F%2Fopen.demonii.com%3A1337","udp%3A%2F%2Ftracker.coppersurfer.tk%3A6969","udp%3A%2F%2Fexodus.desync.com%3A6969"],"infoHash":"59732bd09bab635cb2c37dc75a25aa917eb7560a","infoHashBuffer":{"type":"Buffer","data":[89,115,43,208,155,171,99,92,178,195,125,199,90,37,170,145,126,183,86,10]},"announce":[],"urlList":[]}}